# xmcd CD database file
#
# Track frame offsets:
#	150
#	13582
#	27492
#	40540
#	53735
#	66233
#	80115
#	95235
#	105343
#	115850
#	125312
#	137158
#	150510
#	160693
#
# Disc length: 2365 seconds
#
# Revision: 0
# Processed by: cddbd v1.5.1PL2 Copyright (c) Steve Scherf et al.
# Submitted via: CDex 1.70beta2
#
DISCID=af093b0e
DTITLE=Percy Sledge - Percy Goes Country
DYEAR=1994
DGENRE=Country
TTITLE0=I Still Miss Someone
TTITLE1=The Faithful Kind
TTITLE2=Home Type Thing
TTITLE3=Personality
TTITLE4=I'd Put Angels Around You
TTITLE5=Hard Lovin' Woman
TTITLE6=Keep the Fire Burning
TTITLE7=Kiss an Angel Good Morning
TTITLE8=Hey Good Lookin'
TTITLE9=If You Got the Money, Honey
TTITLE10=Today I Started Loving You Again
TTITLE11=She Still Thinks I Care
TTITLE12=Wabash Cannonball
TTITLE13=For the Good Times
EXTD=YEAR: 1994
EXTT0=
EXTT1=
EXTT2=
EXTT3=
EXTT4=
EXTT5=
EXTT6=
EXTT7=
EXTT8=
EXTT9=
EXTT10=
EXTT11=
EXTT12=
EXTT13=
PLAYORDER=
